<svg width="48" height="48" viewBox="0 0 48 48" fill="none" xmlns="http://www.w3.org/2000/svg">
<rect width="48" height="48" rx="24" fill="#EEEEEE"/>
<path d="M25.25 16.5C25.25 16.1685 25.1183 15.8505 24.8839 15.6161C24.6495 15.3817 24.3315 15.25 24 15.25C23.6685 15.25 23.3505 15.3817 23.1161 15.6161C22.8817 15.8505 22.75 16.1685 22.75 16.5V22.75H16.5C16.1685 22.75 15.8505 22.8817 15.6161 23.1161C15.3817 23.3505 15.25 23.6685 15.25 24C15.25 24.3315 15.3817 24.6495 15.6161 24.8839C15.8505 25.1183 16.1685 25.25 16.5 25.25H22.75V31.5C22.75 31.8315 22.8817 32.1495 23.1161 32.3839C23.3505 32.6183 23.6685 32.75 24 32.75C24.3315 32.75 24.6495 32.6183 24.8839 32.3839C25.1183 32.1495 25.25 31.8315 25.25 31.5V25.25H31.5C31.8315 25.25 32.1495 25.1183 32.3839 24.8839C32.6183 24.6495 32.75 24.3315 32.75 24C32.75 23.6685 32.6183 23.3505 32.3839 23.1161C32.1495 22.8817 31.8315 22.75 31.5 22.75H25.25V16.5Z" fill="black"/>
</svg>
