<svg width="80" height="101" viewBox="0 0 80 101" fill="none" xmlns="http://www.w3.org/2000/svg">
<g filter="url(#filter0_dddd_1569_4269)">
<rect x="12" y="2" width="56" height="56" rx="28" fill="#04ABB0"/>
<path d="M49.3335 17.7332H49.3328C49.2772 17.7331 49.2229 17.7505 49.1776 17.7829C49.1324 17.8152 49.0985 17.8608 49.0805 17.9133L49.3335 17.7332ZM49.3335 17.7332C49.3834 17.7332 49.4323 17.7472 49.4746 17.7736L50.039 16.8685L49.4746 17.7736C49.5107 17.7961 49.5408 17.8269 49.5625 17.8633L49.5957 17.9441L50.0519 19.2816L50.2212 19.7777L50.7174 19.9468L52.0867 20.4135L52.0877 20.4138C52.1377 20.4308 52.1815 20.4622 52.2136 20.5042L53.0604 19.8556L52.2136 20.5042C52.2457 20.5461 52.2646 20.5966 52.268 20.6493C52.2714 20.702 52.259 20.7545 52.2325 20.8002L53.1551 21.3356L52.2325 20.8002C52.2099 20.8392 52.1777 20.8718 52.1391 20.8949L52.0573 20.9282L50.7184 21.385L50.2223 21.5542L50.0532 22.0504L49.5865 23.4198L49.5864 23.4201C49.5694 23.4701 49.5379 23.5139 49.496 23.5459C49.454 23.578 49.4035 23.5969 49.3508 23.6003C49.2981 23.6036 49.2456 23.5912 49.2 23.5647C49.1606 23.5418 49.1278 23.5093 49.1047 23.4703L49.0713 23.3889L48.615 22.0515L48.4458 21.5553L47.9496 21.3862L46.5802 20.9195L46.5793 20.9192C46.5293 20.9022 46.4854 20.8708 46.4533 20.8289L45.6065 21.4774L46.4533 20.8288C46.4212 20.7869 46.4023 20.7364 46.3989 20.6837C46.3956 20.631 46.4079 20.5785 46.4344 20.5329C46.4571 20.4938 46.4893 20.4612 46.5278 20.4381L46.6096 20.4048L47.9485 19.948L48.4447 19.7788L48.6138 19.2826L49.0803 17.9137L49.3335 17.7332ZM36.0669 24.7864L36.0725 24.7715L36.0776 24.7564L37.1522 21.6088C37.1522 21.6087 37.1522 21.6086 37.1523 21.6085C37.6261 20.2227 39.5436 20.1627 40.1209 21.4535L40.1852 21.6251L41.2561 24.7567C41.2561 24.7568 41.2562 24.7569 41.2562 24.757C41.5521 25.6229 42.0303 26.4152 42.6584 27.0806C43.2866 27.7461 44.0502 28.2691 44.8977 28.6143L44.9123 28.6203L44.9271 28.6258L45.2165 28.7338L45.2305 28.7391L45.2447 28.7439L48.3912 29.8185C48.3913 29.8186 48.3913 29.8186 48.3914 29.8186C49.7775 30.2924 49.8371 32.2102 48.5477 32.7873L48.3762 32.8516L45.2449 33.9224C45.2448 33.9224 45.2447 33.9224 45.2447 33.9224C45.2446 33.9225 45.2445 33.9225 45.2443 33.9225C44.3783 34.2183 43.5857 34.6963 42.9201 35.3244C42.2544 35.9526 41.7311 36.7163 41.3857 37.564L41.38 37.5779L41.3747 37.592L41.2667 37.88L41.2611 37.8949L41.256 37.9099L40.1814 41.0576C40.1814 41.0577 40.1814 41.0578 40.1813 41.0579C39.7066 42.4464 37.7851 42.5027 37.212 41.2097L37.1452 41.0373L36.0776 37.9112C35.7819 37.045 35.3038 36.2522 34.6756 35.5865L33.8998 36.3185L34.6756 35.5865C34.0474 34.9207 33.2837 34.3975 32.436 34.052L32.4221 34.0464L32.408 34.0411L32.12 33.9331L32.1052 33.9275L32.0902 33.9224L28.9435 32.8477C27.5536 32.373 27.4973 30.4516 28.7915 29.8785L28.964 29.8116L32.0902 28.7439L32.0904 28.7439C32.9564 28.448 33.7488 27.9698 34.4143 27.3416C35.0797 26.7134 35.6027 25.9498 35.948 25.1023L35.9536 25.0884L35.9589 25.0744L36.0669 24.7864Z" stroke="white" stroke-width="2.13333"/>
</g>
<defs>
<filter id="filter0_dddd_1569_4269" x="0" y="0" width="80" height="101" filterUnits="userSpaceOnUse" color-interpolation-filters="sRGB">
<feFlood flood-opacity="0" result="BackgroundImageFix"/>
<feColorMatrix in="SourceAlpha" type="matrix" values="0 0 0 0 0 0 0 0 0 0 0 0 0 0 0 0 0 0 127 0" result="hardAlpha"/>
<feOffset dy="2"/>
<feGaussianBlur stdDeviation="2"/>
<feColorMatrix type="matrix" values="0 0 0 0 0.0352941 0 0 0 0 0.670588 0 0 0 0 0.690196 0 0 0 0.1 0"/>
<feBlend mode="normal" in2="BackgroundImageFix" result="effect1_dropShadow_1569_4269"/>
<feColorMatrix in="SourceAlpha" type="matrix" values="0 0 0 0 0 0 0 0 0 0 0 0 0 0 0 0 0 0 127 0" result="hardAlpha"/>
<feOffset dy="8"/>
<feGaussianBlur stdDeviation="4"/>
<feColorMatrix type="matrix" values="0 0 0 0 0.0352941 0 0 0 0 0.670588 0 0 0 0 0.690196 0 0 0 0.09 0"/>
<feBlend mode="normal" in2="effect1_dropShadow_1569_4269" result="effect2_dropShadow_1569_4269"/>
<feColorMatrix in="SourceAlpha" type="matrix" values="0 0 0 0 0 0 0 0 0 0 0 0 0 0 0 0 0 0 127 0" result="hardAlpha"/>
<feOffset dy="17"/>
<feGaussianBlur stdDeviation="5"/>
<feColorMatrix type="matrix" values="0 0 0 0 0.0352941 0 0 0 0 0.670588 0 0 0 0 0.690196 0 0 0 0.05 0"/>
<feBlend mode="normal" in2="effect2_dropShadow_1569_4269" result="effect3_dropShadow_1569_4269"/>
<feColorMatrix in="SourceAlpha" type="matrix" values="0 0 0 0 0 0 0 0 0 0 0 0 0 0 0 0 0 0 127 0" result="hardAlpha"/>
<feOffset dy="31"/>
<feGaussianBlur stdDeviation="6"/>
<feColorMatrix type="matrix" values="0 0 0 0 0.0352941 0 0 0 0 0.670588 0 0 0 0 0.690196 0 0 0 0.01 0"/>
<feBlend mode="normal" in2="effect3_dropShadow_1569_4269" result="effect4_dropShadow_1569_4269"/>
<feBlend mode="normal" in="SourceGraphic" in2="effect4_dropShadow_1569_4269" result="shape"/>
</filter>
</defs>
</svg>
