<svg width="89" height="88" viewBox="0 0 89 88" fill="none" xmlns="http://www.w3.org/2000/svg">
<path opacity="0.4" d="M52.0402 26.8202L46.2802 22.7902C44.7102 21.6902 42.3002 21.7502 40.7902 22.9202L35.7802 26.8302C34.7802 27.6102 33.9902 29.2102 33.9902 30.4702V37.3702C33.9902 39.9202 36.0602 42.0002 38.6102 42.0002H49.3902C51.9402 42.0002 54.0102 39.9302 54.0102 37.3802V30.6002C54.0102 29.2502 53.1402 27.5902 52.0402 26.8202Z" fill="#06C1C7"/>
<path d="M44 38.75C43.59 38.75 43.25 38.41 43.25 38V35C43.25 34.59 43.59 34.25 44 34.25C44.41 34.25 44.75 34.59 44.75 35V38C44.75 38.41 44.41 38.75 44 38.75Z" fill="#04ABB0"/>
<path d="M26.3306 62V51.8182H27.8668V56.2429H32.9428V51.8182H34.484V62H32.9428V57.5604H27.8668V62H26.3306ZM39.5385 62.1541C38.8226 62.1541 38.1979 61.9901 37.6642 61.6619C37.1306 61.3338 36.7163 60.8748 36.4213 60.2848C36.1264 59.6948 35.9789 59.0054 35.9789 58.2166C35.9789 57.4245 36.1264 56.7318 36.4213 56.1385C36.7163 55.5452 37.1306 55.0845 37.6642 54.7564C38.1979 54.4283 38.8226 54.2642 39.5385 54.2642C40.2544 54.2642 40.8792 54.4283 41.4128 54.7564C41.9464 55.0845 42.3607 55.5452 42.6557 56.1385C42.9507 56.7318 43.0982 57.4245 43.0982 58.2166C43.0982 59.0054 42.9507 59.6948 42.6557 60.2848C42.3607 60.8748 41.9464 61.3338 41.4128 61.6619C40.8792 61.9901 40.2544 62.1541 39.5385 62.1541ZM39.5435 60.9062C40.0075 60.9062 40.392 60.7836 40.6969 60.5384C41.0018 60.2931 41.2272 59.9666 41.373 59.5589C41.5222 59.1513 41.5968 58.7022 41.5968 58.2116C41.5968 57.7244 41.5222 57.277 41.373 56.8693C41.2272 56.4583 41.0018 56.1286 40.6969 55.88C40.392 55.6314 40.0075 55.5071 39.5435 55.5071C39.0762 55.5071 38.6884 55.6314 38.3801 55.88C38.0752 56.1286 37.8482 56.4583 37.699 56.8693C37.5532 57.277 37.4803 57.7244 37.4803 58.2116C37.4803 58.7022 37.5532 59.1513 37.699 59.5589C37.8482 59.9666 38.0752 60.2931 38.3801 60.5384C38.6884 60.7836 39.0762 60.9062 39.5435 60.9062ZM44.4775 62V54.3636H45.9043V55.6065H45.9988C46.1579 55.1856 46.418 54.8575 46.7793 54.6222C47.1406 54.3835 47.5731 54.2642 48.0769 54.2642C48.5873 54.2642 49.0149 54.3835 49.3596 54.6222C49.7076 54.8608 49.9644 55.1889 50.1302 55.6065H50.2097C50.392 55.1989 50.682 54.8741 51.0797 54.6321C51.4775 54.3868 51.9514 54.2642 52.5016 54.2642C53.1943 54.2642 53.7594 54.4813 54.1969 54.9155C54.6377 55.3497 54.8581 56.0043 54.8581 56.8793V62H53.3716V57.0185C53.3716 56.5014 53.2308 56.1269 52.949 55.8949C52.6673 55.6629 52.3309 55.5469 51.9398 55.5469C51.4559 55.5469 51.0797 55.696 50.8113 55.9943C50.5428 56.2893 50.4086 56.6688 50.4086 57.1328V62H48.927V56.924C48.927 56.5097 48.7978 56.1766 48.5392 55.9247C48.2807 55.6728 47.9443 55.5469 47.53 55.5469C47.2483 55.5469 46.9881 55.6214 46.7495 55.7706C46.5141 55.9164 46.3236 56.1203 46.1777 56.3821C46.0352 56.6439 45.964 56.9472 45.964 57.2919V62H44.4775ZM59.8617 62.1541C59.1093 62.1541 58.4614 61.9934 57.9178 61.6719C57.3776 61.3471 56.9599 60.8913 56.665 60.3047C56.3733 59.7147 56.2275 59.0237 56.2275 58.2315C56.2275 57.4493 56.3733 56.7599 56.665 56.1634C56.9599 55.5668 57.3709 55.1011 57.8979 54.7663C58.4282 54.4316 59.048 54.2642 59.7573 54.2642C60.1882 54.2642 60.6058 54.3355 61.0101 54.478C61.4145 54.6205 61.7774 54.8442 62.0989 55.1491C62.4204 55.4541 62.674 55.8501 62.8596 56.3374C63.0452 56.8213 63.138 57.4096 63.138 58.1023V58.6293H57.0677V57.5156H61.6813C61.6813 57.1245 61.6018 56.7782 61.4427 56.4766C61.2836 56.1716 61.0598 55.9313 60.7715 55.7557C60.4865 55.58 60.1517 55.4922 59.7672 55.4922C59.3496 55.4922 58.985 55.5949 58.6735 55.8004C58.3652 56.0026 58.1266 56.2678 57.9576 56.5959C57.7919 56.9207 57.709 57.2737 57.709 57.6548V58.5249C57.709 59.0353 57.7985 59.4695 57.9775 59.8274C58.1598 60.1854 58.4133 60.4588 58.7381 60.6477C59.0629 60.8333 59.4424 60.9261 59.8766 60.9261C60.1583 60.9261 60.4152 60.8864 60.6472 60.8068C60.8792 60.724 61.0797 60.6013 61.2488 60.4389C61.4178 60.2765 61.5471 60.076 61.6366 59.8374L63.0435 60.0909C62.9308 60.5052 62.7286 60.8681 62.437 61.1797C62.1486 61.4879 61.7857 61.7282 61.3482 61.9006C60.914 62.0696 60.4185 62.1541 59.8617 62.1541Z" fill="#06C1C7"/>
</svg>
