<svg width="89" height="88" viewBox="0 0 89 88" fill="none" xmlns="http://www.w3.org/2000/svg">
<path d="M18.5346 62L15.7107 51.8182H17.3265L19.3102 59.7031H19.4046L21.4678 51.8182H23.0687L25.1319 59.7081H25.2264L27.2051 51.8182H28.8258L25.997 62H24.4508L22.308 54.3736H22.2285L20.0857 62H18.5346ZM31.2976 62.169C30.8137 62.169 30.3762 62.0795 29.9851 61.9006C29.594 61.7183 29.2841 61.4548 29.0554 61.1101C28.83 60.7654 28.7173 60.3428 28.7173 59.8423C28.7173 59.4115 28.8002 59.0568 28.9659 58.7784C29.1316 58.5 29.3553 58.2796 29.6371 58.1172C29.9188 57.9548 30.2336 57.8321 30.5817 57.7493C30.9297 57.6664 31.2843 57.6035 31.6456 57.5604C32.103 57.5073 32.4742 57.4643 32.7592 57.4311C33.0443 57.3946 33.2514 57.3366 33.3807 57.2571C33.5099 57.1776 33.5746 57.0483 33.5746 56.8693V56.8345C33.5746 56.4003 33.4519 56.0639 33.2067 55.8253C32.9647 55.5866 32.6034 55.4673 32.1229 55.4673C31.6224 55.4673 31.228 55.5784 30.9396 55.8004C30.6546 56.0192 30.4574 56.2628 30.348 56.5312L28.951 56.2131C29.1167 55.7491 29.3586 55.3745 29.6768 55.0895C29.9983 54.8011 30.3679 54.5923 30.7855 54.4631C31.2031 54.3305 31.6423 54.2642 32.103 54.2642C32.4079 54.2642 32.731 54.3007 33.0724 54.3736C33.4171 54.4432 33.7386 54.5724 34.0369 54.7614C34.3385 54.9503 34.5854 55.2204 34.7777 55.5717C34.9699 55.9197 35.066 56.3722 35.066 56.929V62H33.6143V60.956H33.5547C33.4586 61.1482 33.3144 61.3371 33.1221 61.5227C32.9299 61.7083 32.683 61.8625 32.3814 61.9851C32.0798 62.1077 31.7185 62.169 31.2976 62.169ZM31.6207 60.9759C32.0317 60.9759 32.383 60.8946 32.6747 60.7322C32.9697 60.5698 33.1934 60.3577 33.3459 60.0959C33.5016 59.8307 33.5795 59.5473 33.5795 59.2457V58.2614C33.5265 58.3144 33.4238 58.3641 33.2713 58.4105C33.1221 58.4536 32.9515 58.4917 32.7592 58.5249C32.567 58.5547 32.3797 58.5829 32.1974 58.6094C32.0151 58.6326 31.8627 58.6525 31.74 58.669C31.4517 58.7055 31.1882 58.7668 30.9496 58.853C30.7142 58.9392 30.5253 59.0634 30.3828 59.2259C30.2436 59.3849 30.174 59.5971 30.174 59.8622C30.174 60.2301 30.3099 60.5085 30.5817 60.6974C30.8534 60.883 31.1998 60.9759 31.6207 60.9759ZM40.3306 54.3636V55.5568H36.1594V54.3636H40.3306ZM37.278 52.5341H38.7645V59.7578C38.7645 60.0462 38.8076 60.2633 38.8938 60.4091C38.98 60.5516 39.091 60.6494 39.2269 60.7024C39.3661 60.7521 39.5169 60.777 39.6793 60.777C39.7986 60.777 39.903 60.7687 39.9925 60.7521C40.082 60.7356 40.1516 60.7223 40.2013 60.7124L40.4698 61.9403C40.3836 61.9735 40.261 62.0066 40.1019 62.0398C39.9428 62.0762 39.744 62.0961 39.5053 62.0994C39.1142 62.1061 38.7496 62.0365 38.4116 61.8906C38.0735 61.7448 37.8001 61.5194 37.5913 61.2145C37.3824 60.9096 37.278 60.5268 37.278 60.0661V52.5341ZM44.9041 62.1541C44.1517 62.1541 43.5038 61.9934 42.9602 61.6719C42.42 61.3471 42.0024 60.8913 41.7074 60.3047C41.4157 59.7147 41.2699 59.0237 41.2699 58.2315C41.2699 57.4493 41.4157 56.7599 41.7074 56.1634C42.0024 55.5668 42.4133 55.1011 42.9403 54.7663C43.4706 54.4316 44.0904 54.2642 44.7997 54.2642C45.2306 54.2642 45.6482 54.3355 46.0526 54.478C46.4569 54.6205 46.8198 54.8442 47.1413 55.1491C47.4628 55.4541 47.7164 55.8501 47.902 56.3374C48.0876 56.8213 48.1804 57.4096 48.1804 58.1023V58.6293H42.1101V57.5156H46.7237C46.7237 57.1245 46.6442 56.7782 46.4851 56.4766C46.326 56.1716 46.1023 55.9313 45.8139 55.7557C45.5289 55.58 45.1941 55.4922 44.8097 55.4922C44.392 55.4922 44.0275 55.5949 43.7159 55.8004C43.4077 56.0026 43.169 56.2678 43 56.5959C42.8343 56.9207 42.7514 57.2737 42.7514 57.6548V58.5249C42.7514 59.0353 42.8409 59.4695 43.0199 59.8274C43.2022 60.1854 43.4557 60.4588 43.7805 60.6477C44.1053 60.8333 44.4848 60.9261 44.919 60.9261C45.2008 60.9261 45.4576 60.8864 45.6896 60.8068C45.9216 60.724 46.1222 60.6013 46.2912 60.4389C46.4602 60.2765 46.5895 60.076 46.679 59.8374L48.0859 60.0909C47.9732 60.5052 47.7711 60.8681 47.4794 61.1797C47.191 61.4879 46.8281 61.7282 46.3906 61.9006C45.9564 62.0696 45.4609 62.1541 44.9041 62.1541ZM49.5497 62V54.3636H50.9865V55.5767H51.0661C51.2053 55.1657 51.4505 54.8426 51.8019 54.6072C52.1565 54.3686 52.5575 54.2493 53.005 54.2493C53.0978 54.2493 53.2072 54.2526 53.3331 54.2592C53.4624 54.2659 53.5635 54.2741 53.6364 54.2841V55.706C53.5767 55.6894 53.4706 55.6712 53.3182 55.6513C53.1657 55.6281 53.0133 55.6165 52.8608 55.6165C52.5095 55.6165 52.1963 55.6911 51.9212 55.8402C51.6494 55.986 51.434 56.1899 51.2749 56.4517C51.1158 56.7102 51.0362 57.0052 51.0362 57.3366V62H49.5497ZM54.6428 62V54.3636H56.1293V62H54.6428ZM55.3935 53.1854C55.135 53.1854 54.9129 53.0992 54.7273 52.9268C54.545 52.7512 54.4538 52.5424 54.4538 52.3004C54.4538 52.0552 54.545 51.8464 54.7273 51.674C54.9129 51.4983 55.135 51.4105 55.3935 51.4105C55.652 51.4105 55.8724 51.4983 56.0547 51.674C56.2403 51.8464 56.3331 52.0552 56.3331 52.3004C56.3331 52.5424 56.2403 52.7512 56.0547 52.9268C55.8724 53.0992 55.652 53.1854 55.3935 53.1854ZM59.3356 57.4659V62H57.8491V54.3636H59.2759V55.6065H59.3704C59.5461 55.2022 59.8212 54.8774 60.1957 54.6321C60.5735 54.3868 61.0491 54.2642 61.6225 54.2642C62.1429 54.2642 62.5986 54.3736 62.9897 54.5923C63.3808 54.8078 63.6841 55.1293 63.8995 55.5568C64.115 55.9844 64.2227 56.513 64.2227 57.1428V62H62.7362V57.3217C62.7362 56.7682 62.592 56.3357 62.3036 56.0241C62.0153 55.7093 61.6192 55.5518 61.1154 55.5518C60.7707 55.5518 60.4642 55.6264 60.1957 55.7756C59.9305 55.9247 59.7201 56.1435 59.5643 56.4318C59.4118 56.7169 59.3356 57.0616 59.3356 57.4659ZM69.138 65.0227C68.5315 65.0227 68.0094 64.9432 67.5719 64.7841C67.1378 64.625 66.7831 64.4145 66.508 64.1527C66.2329 63.8909 66.0274 63.6042 65.8915 63.2926L67.1692 62.7656C67.2587 62.9115 67.378 63.0656 67.5272 63.228C67.6797 63.3937 67.8851 63.5346 68.1437 63.6506C68.4055 63.7666 68.7419 63.8246 69.1529 63.8246C69.7163 63.8246 70.182 63.687 70.5499 63.4119C70.9178 63.1402 71.1018 62.706 71.1018 62.1094V60.608H71.0073C70.9178 60.7704 70.7886 60.951 70.6195 61.1499C70.4538 61.3487 70.2251 61.5211 69.9334 61.6669C69.6418 61.8127 69.2623 61.8857 68.7949 61.8857C68.1917 61.8857 67.6482 61.7448 67.1643 61.4631C66.6837 61.178 66.3025 60.7588 66.0208 60.2053C65.7424 59.6484 65.6032 58.964 65.6032 58.152C65.6032 57.34 65.7407 56.6439 66.0158 56.0639C66.2942 55.4839 66.6754 55.0398 67.1593 54.7315C67.6432 54.42 68.1917 54.2642 68.8049 54.2642C69.2788 54.2642 69.6617 54.3438 69.9533 54.5028C70.245 54.6586 70.472 54.8409 70.6344 55.0497C70.8002 55.2585 70.9278 55.4425 71.0172 55.6016H71.1266V54.3636H72.5833V62.169C72.5833 62.8253 72.4308 63.3639 72.1259 63.7848C71.821 64.2057 71.4083 64.5173 70.888 64.7195C70.3709 64.9216 69.7876 65.0227 69.138 65.0227ZM69.1231 60.6527C69.5506 60.6527 69.9119 60.5533 70.2069 60.3544C70.5052 60.1522 70.7306 59.8639 70.883 59.4893C71.0388 59.1115 71.1167 58.6591 71.1167 58.1321C71.1167 57.6184 71.0404 57.166 70.888 56.7749C70.7355 56.3838 70.5118 56.0788 70.2168 55.8601C69.9218 55.638 69.5573 55.527 69.1231 55.527C68.6756 55.527 68.3028 55.643 68.0045 55.875C67.7062 56.1037 67.4808 56.4152 67.3283 56.8097C67.1792 57.2041 67.1046 57.6449 67.1046 58.1321C67.1046 58.6326 67.1808 59.0717 67.3333 59.4496C67.4858 59.8274 67.7111 60.1224 68.0094 60.3345C68.311 60.5466 68.6823 60.6527 69.1231 60.6527Z" fill="#AFAFAF"/>
<path d="M50 22H40C37.7909 22 36 23.7909 36 26V36C36 38.2091 37.7909 40 40 40H50C52.2091 40 54 38.2091 54 36V26C54 23.7909 52.2091 22 50 22Z" stroke="#AFAFAF" stroke-width="1.6" stroke-linecap="round" stroke-linejoin="round"/>
<path d="M42 31L44.25 33L48 29" stroke="#AFAFAF" stroke-width="1.6" stroke-linecap="round" stroke-linejoin="round"/>
</svg>
