<svg width="89" height="88" viewBox="0 0 89 88" fill="none" xmlns="http://www.w3.org/2000/svg">
<path d="M24.5348 62V51.8182H28.164C28.9562 51.8182 29.6124 51.9624 30.1328 52.2507C30.6532 52.5391 31.0426 52.9335 31.3011 53.4339C31.5596 53.9311 31.6889 54.4912 31.6889 55.1143C31.6889 55.7408 31.558 56.3042 31.2961 56.8047C31.0376 57.3018 30.6465 57.6963 30.1228 57.9879C29.6025 58.2763 28.9479 58.4205 28.1591 58.4205H25.6633V57.1179H28.0199C28.5203 57.1179 28.9264 57.0317 29.2379 56.8594C29.5495 56.6837 29.7782 56.4451 29.924 56.1435C30.0698 55.8419 30.1427 55.4988 30.1427 55.1143C30.1427 54.7299 30.0698 54.3885 29.924 54.0902C29.7782 53.7919 29.5478 53.5582 29.2329 53.3892C28.9214 53.2202 28.5104 53.1357 28 53.1357H26.071V62H24.5348ZM33.0905 62V54.3636H34.5273V55.5767H34.6069C34.7461 55.1657 34.9913 54.8426 35.3427 54.6072C35.6973 54.3686 36.0984 54.2493 36.5458 54.2493C36.6386 54.2493 36.748 54.2526 36.8739 54.2592C37.0032 54.2659 37.1043 54.2741 37.1772 54.2841V55.706C37.1175 55.6894 37.0115 55.6712 36.859 55.6513C36.7065 55.6281 36.5541 55.6165 36.4016 55.6165C36.0503 55.6165 35.7371 55.6911 35.462 55.8402C35.1902 55.986 34.9748 56.1899 34.8157 56.4517C34.6566 56.7102 34.577 57.0052 34.577 57.3366V62H33.0905ZM41.1268 62.1541C40.4109 62.1541 39.7861 61.9901 39.2525 61.6619C38.7189 61.3338 38.3046 60.8748 38.0096 60.2848C37.7146 59.6948 37.5671 59.0054 37.5671 58.2166C37.5671 57.4245 37.7146 56.7318 38.0096 56.1385C38.3046 55.5452 38.7189 55.0845 39.2525 54.7564C39.7861 54.4283 40.4109 54.2642 41.1268 54.2642C41.8427 54.2642 42.4674 54.4283 43.0011 54.7564C43.5347 55.0845 43.949 55.5452 44.244 56.1385C44.5389 56.7318 44.6864 57.4245 44.6864 58.2166C44.6864 59.0054 44.5389 59.6948 44.244 60.2848C43.949 60.8748 43.5347 61.3338 43.0011 61.6619C42.4674 61.9901 41.8427 62.1541 41.1268 62.1541ZM41.1317 60.9062C41.5958 60.9062 41.9802 60.7836 42.2851 60.5384C42.5901 60.2931 42.8155 59.9666 42.9613 59.5589C43.1104 59.1513 43.185 58.7022 43.185 58.2116C43.185 57.7244 43.1104 57.277 42.9613 56.8693C42.8155 56.4583 42.5901 56.1286 42.2851 55.88C41.9802 55.6314 41.5958 55.5071 41.1317 55.5071C40.6644 55.5071 40.2766 55.6314 39.9684 55.88C39.6635 56.1286 39.4364 56.4583 39.2873 56.8693C39.1414 57.277 39.0685 57.7244 39.0685 58.2116C39.0685 58.7022 39.1414 59.1513 39.2873 59.5589C39.4364 59.9666 39.6635 60.2931 39.9684 60.5384C40.2766 60.7836 40.6644 60.9062 41.1317 60.9062ZM49.6999 54.3636V55.5568H45.3846V54.3636H49.6999ZM46.5678 62V53.4787C46.5678 53.0014 46.6722 52.6053 46.881 52.2905C47.0898 51.9723 47.3666 51.7353 47.7113 51.5795C48.056 51.4205 48.4305 51.3409 48.8349 51.3409C49.1332 51.3409 49.3884 51.3658 49.6005 51.4155C49.8126 51.4619 49.9701 51.505 50.0728 51.5447L49.7248 52.7479C49.6552 52.728 49.5657 52.7048 49.4563 52.6783C49.3469 52.6484 49.2144 52.6335 49.0586 52.6335C48.6973 52.6335 48.4388 52.723 48.283 52.902C48.1306 53.081 48.0543 53.3395 48.0543 53.6776V62H46.5678ZM50.9537 62V54.3636H52.4402V62H50.9537ZM51.7044 53.1854C51.4459 53.1854 51.2238 53.0992 51.0382 52.9268C50.8559 52.7512 50.7647 52.5424 50.7647 52.3004C50.7647 52.0552 50.8559 51.8464 51.0382 51.674C51.2238 51.4983 51.4459 51.4105 51.7044 51.4105C51.9629 51.4105 52.1833 51.4983 52.3656 51.674C52.5512 51.8464 52.644 52.0552 52.644 52.3004C52.644 52.5424 52.5512 52.7512 52.3656 52.9268C52.1833 53.0992 51.9629 53.1854 51.7044 53.1854ZM55.6465 51.8182V62H54.16V51.8182H55.6465ZM60.6575 62.1541C59.9051 62.1541 59.2572 61.9934 58.7136 61.6719C58.1734 61.3471 57.7558 60.8913 57.4608 60.3047C57.1691 59.7147 57.0233 59.0237 57.0233 58.2315C57.0233 57.4493 57.1691 56.7599 57.4608 56.1634C57.7558 55.5668 58.1667 55.1011 58.6937 54.7663C59.224 54.4316 59.8438 54.2642 60.5531 54.2642C60.984 54.2642 61.4016 54.3355 61.806 54.478C62.2103 54.6205 62.5732 54.8442 62.8947 55.1491C63.2162 55.4541 63.4698 55.8501 63.6554 56.3374C63.841 56.8213 63.9338 57.4096 63.9338 58.1023V58.6293H57.8635V57.5156H62.4771C62.4771 57.1245 62.3976 56.7782 62.2385 56.4766C62.0794 56.1716 61.8557 55.9313 61.5673 55.7557C61.2823 55.58 60.9475 55.4922 60.5631 55.4922C60.1454 55.4922 59.7809 55.5949 59.4693 55.8004C59.1611 56.0026 58.9224 56.2678 58.7534 56.5959C58.5877 56.9207 58.5048 57.2737 58.5048 57.6548V58.5249C58.5048 59.0353 58.5943 59.4695 58.7733 59.8274C58.9556 60.1854 59.2091 60.4588 59.5339 60.6477C59.8587 60.8333 60.2382 60.9261 60.6724 60.9261C60.9542 60.9261 61.211 60.8864 61.443 60.8068C61.675 60.724 61.8756 60.6013 62.0446 60.4389C62.2136 60.2765 62.3429 60.076 62.4324 59.8374L63.8393 60.0909C63.7266 60.5052 63.5245 60.8681 63.2328 61.1797C62.9444 61.4879 62.5815 61.7282 62.144 61.9006C61.7098 62.0696 61.2143 62.1541 60.6575 62.1541Z" fill="#AFAFAF"/>
<path d="M37 38C37 36.9391 37.4214 35.9217 38.1716 35.1716C38.9217 34.4214 39.9391 34 41 34H49C50.0609 34 51.0783 34.4214 51.8284 35.1716C52.5786 35.9217 53 36.9391 53 38C53 38.5304 52.7893 39.0391 52.4142 39.4142C52.0391 39.7893 51.5304 40 51 40H39C38.4696 40 37.9609 39.7893 37.5858 39.4142C37.2107 39.0391 37 38.5304 37 38Z" stroke="#AFAFAF" stroke-width="1.6" stroke-linejoin="round"/>
<path d="M45 30C46.6569 30 48 28.6569 48 27C48 25.3431 46.6569 24 45 24C43.3431 24 42 25.3431 42 27C42 28.6569 43.3431 30 45 30Z" stroke="#AFAFAF" stroke-width="1.6"/>
</svg>
