<svg width="34" height="28" viewBox="0 0 34 28" fill="none" xmlns="http://www.w3.org/2000/svg">
<rect width="34" height="28" rx="14" fill="#D9D9D9"/>
<path d="M22.6354 8.36436C21.1483 6.87725 18.7419 6.87725 17.2565 8.36436L15.5532 10.0677L16.4497 10.9642L18.153 9.26084C19.0987 8.31514 20.6948 8.21494 21.739 9.26084C22.7849 10.3067 22.6847 11.9011 21.739 12.8468L20.0356 14.5501L20.9339 15.4483L22.6372 13.745C24.1208 12.2579 24.1208 9.85147 22.6354 8.36436ZM15.8485 18.739C14.9028 19.6847 13.3067 19.7849 12.2626 18.739C11.2167 17.6931 11.3169 16.0987 12.2626 15.153L13.9659 13.4497L13.0677 12.5515L11.3644 14.2548C9.87725 15.7419 9.87725 18.1483 11.3644 19.6337C12.8515 21.119 15.2579 21.1208 16.7433 19.6337L18.4466 17.9304L17.5501 17.0339L15.8485 18.739ZM12.5755 8.68076C12.5491 8.65459 12.5134 8.63991 12.4762 8.63991C12.439 8.63991 12.4033 8.65459 12.3769 8.68076L11.6808 9.37686C11.6546 9.40329 11.6399 9.43898 11.6399 9.47617C11.6399 9.51337 11.6546 9.54906 11.6808 9.57549L21.4261 19.3208C21.4806 19.3753 21.5702 19.3753 21.6247 19.3208L22.3208 18.6247C22.3753 18.5702 22.3753 18.4806 22.3208 18.4261L12.5755 8.68076Z" fill="white"/>
</svg>
