<svg width="34" height="28" viewBox="0 0 34 28" fill="none" xmlns="http://www.w3.org/2000/svg">
<rect width="34" height="28" rx="14" fill="#D4B500"/>
<path d="M17 21.1251C15.3375 21.1251 13.9218 20.5501 12.7528 19.4001C11.5838 18.2501 10.9995 16.8501 11 15.2001C11 14.4126 11.1533 13.6596 11.4598 12.9411C11.7663 12.2226 12.2005 11.5881 12.7625 11.0376L15.95 7.90635C16.1 7.76885 16.2658 7.6626 16.4473 7.5876C16.6288 7.5126 16.813 7.4751 17 7.4751C17.187 7.4751 17.3715 7.5126 17.5535 7.5876C17.7355 7.6626 17.901 7.76885 18.05 7.90635L21.2375 11.0376C21.8 11.5876 22.2345 12.2221 22.541 12.9411C22.8475 13.6601 23.0005 14.4131 23 15.2001C23 16.8501 22.4158 18.2501 21.2473 19.4001C20.0788 20.5501 18.663 21.1251 17 21.1251ZM17 19.6251C18.25 19.6251 19.3125 19.1968 20.1875 18.3403C21.0625 17.4838 21.5 16.4371 21.5 15.2001C21.5 14.6126 21.3875 14.0533 21.1625 13.5223C20.9375 12.9913 20.6125 12.5256 20.1875 12.1251L17 8.9751L13.8125 12.1251C13.3875 12.5251 13.0625 12.9908 12.8375 13.5223C12.6125 14.0538 12.5 14.6131 12.5 15.2001C12.5 16.4376 12.9375 17.4846 13.8125 18.3411C14.6875 19.1976 15.75 19.6256 17 19.6251Z" fill="white"/>
</svg>
