<svg width="34" height="28" viewBox="0 0 34 28" fill="none" xmlns="http://www.w3.org/2000/svg">
<rect width="34" height="28" rx="14" fill="#24494E"/>
<path d="M13 21.0623C12.1688 21.0623 11.4609 20.7748 10.8764 20.1998C10.2919 19.6248 9.99975 18.9248 10 18.0998C10 17.7061 10.0766 17.3296 10.2299 16.9703C10.3831 16.6111 10.6003 16.2938 10.8813 16.0186L12.475 14.4529C12.55 14.3842 12.6329 14.3311 12.7236 14.2936C12.8144 14.2561 12.9065 14.2373 13 14.2373C13.0935 14.2373 13.1858 14.2561 13.2768 14.2936C13.3678 14.3311 13.4505 14.3842 13.525 14.4529L15.1188 16.0186C15.4 16.2936 15.6173 16.6108 15.7705 16.9703C15.9238 17.3298 16.0003 17.7063 16 18.0998C16 18.9248 15.7079 19.6248 15.1236 20.1998C14.5394 20.7748 13.8315 21.0623 13 21.0623Z" fill="white"/>
<path d="M21 21.0623C20.1688 21.0623 19.4609 20.7748 18.8764 20.1998C18.2919 19.6248 17.9998 18.9248 18 18.0998C18 17.7061 18.0766 17.3296 18.2299 16.9703C18.3831 16.6111 18.6003 16.2938 18.8813 16.0186L20.475 14.4529C20.55 14.3842 20.6329 14.3311 20.7236 14.2936C20.8144 14.2561 20.9065 14.2373 21 14.2373C21.0935 14.2373 21.1858 14.2561 21.2768 14.2936C21.3678 14.3311 21.4505 14.3842 21.525 14.4529L23.1188 16.0186C23.4 16.2936 23.6173 16.6108 23.7705 16.9703C23.9238 17.3298 24.0003 17.7063 24 18.0998C24 18.9248 23.7079 19.6248 23.1236 20.1998C22.5394 20.7748 21.8315 21.0623 21 21.0623Z" fill="white"/>
<g clip-path="url(#clip0_2060_3791)">
<path d="M17 14.0623C16.1688 14.0623 15.4609 13.7748 14.8764 13.1998C14.2919 12.6248 13.9998 11.9248 14 11.0998C14 10.7061 14.0766 10.3296 14.2299 9.9703C14.3831 9.61105 14.6003 9.2938 14.8813 9.01855L16.475 7.45293C16.55 7.38418 16.6329 7.33105 16.7236 7.29355C16.8144 7.25605 16.9065 7.2373 17 7.2373C17.0935 7.2373 17.1858 7.25605 17.2768 7.29355C17.3678 7.33105 17.4505 7.38418 17.525 7.45293L19.1188 9.01855C19.4 9.29355 19.6173 9.6108 19.7705 9.9703C19.9238 10.3298 20.0003 10.7063 20 11.0998C20 11.9248 19.7079 12.6248 19.1236 13.1998C18.5394 13.7748 17.8315 14.0623 17 14.0623Z" fill="white"/>
</g>
<defs>
<clipPath id="clip0_2060_3791">
<rect width="9" height="9" fill="white" transform="translate(12.5 6)"/>
</clipPath>
</defs>
</svg>
